<?xml version="1.0" encoding="utf-8"?>
<!-- Generator: Adobe Illustrator 21.1.0, SVG Export Plug-In . SVG Version: 6.00 Build 0)  -->
<!DOCTYPE svg PUBLIC "-//W3C//DTD SVG 1.1//EN" "http://www.w3.org/Graphics/SVG/1.1/DTD/svg11.dtd" [
	<!ENTITY ns_extend "http://ns.adobe.com/Extensibility/1.0/">
	<!ENTITY ns_ai "http://ns.adobe.com/AdobeIllustrator/10.0/">
	<!ENTITY ns_graphs "http://ns.adobe.com/Graphs/1.0/">
	<!ENTITY ns_vars "http://ns.adobe.com/Variables/1.0/">
	<!ENTITY ns_imrep "http://ns.adobe.com/ImageReplacement/1.0/">
	<!ENTITY ns_sfw "http://ns.adobe.com/SaveForWeb/1.0/">
	<!ENTITY ns_custom "http://ns.adobe.com/GenericCustomNamespace/1.0/">
	<!ENTITY ns_adobe_xpath "http://ns.adobe.com/XPath/1.0/">
]>
<svg version="1.1" id="Layer_1" xmlns:x="&ns_extend;" xmlns:i="&ns_ai;" xmlns:graph="&ns_graphs;"
	 xmlns="http://www.w3.org/2000/svg" xmlns:xlink="http://www.w3.org/1999/xlink" x="0px" y="0px" viewBox="0 0 203 50"
	 style="enable-background:new 0 0 203 50;" xml:space="preserve">
<style type="text/css">
	.st0{fill:#EF6724;}
	.st1{opacity:0.75;}
	.st2{fill:#989898;}
	.st3{opacity:0.4;fill:#989898;}
	.st4{fill:#A5A5A5;}
	.st5{fill:#666666;}
	.st6{fill:#B3B3B3;}
	.st7{fill:#E6E6E6;}
	.st8{fill:#F2F2F2;}
	.st9{fill:#808080;}
	.st10{fill:#999999;}
	.st11{fill:#AA491D;}
	.st12{opacity:0.85;fill:#F2F2F2;}
	.st13{opacity:0.71;fill:url(#);}
	.st14{fill:none;stroke:#F2F2F2;stroke-width:16;stroke-miterlimit:10;}
	.st15{clip-path:url(#SVGID_2_);fill:#AA491D;}
	.st16{opacity:0.5;clip-path:url(#SVGID_2_);}
	.st17{opacity:0.5;}
	.st18{clip-path:url(#SVGID_4_);}
	.st19{opacity:0.71;}
	.st20{clip-path:url(#SVGID_6_);}
	.st21{fill:none;stroke:#F2F2F2;stroke-width:23.8168;stroke-miterlimit:10;}
	.st22{opacity:0.5;fill:none;stroke:#F2F2F2;stroke-width:5;stroke-miterlimit:10;}
	.st23{fill:url(#);}
</style>
<metadata>
	<sfw  xmlns="&ns_sfw;">
		<slices></slices>
		<sliceSourceBounds  bottomLeftOrigin="true" height="4278.2" width="8442.2" x="532" y="-4015.2"></sliceSourceBounds>
	</sfw>
</metadata>
<g>
	<circle class="st0" cx="26.5" cy="25" r="23.5"/>
	<g>
		<path class="st9" d="M60.9,20.2L60.1,22h-1.6l3-7.2h1.9l3.1,7.2h-1.6l-0.8-1.8H60.9z M63.7,18.9c-0.7-1.8-1.1-2.6-1.3-3.2h0
			c-0.2,0.5-0.6,1.7-1.2,3.2H63.7z"/>
		<path class="st9" d="M67.6,14.8h1.5v6h4.1L73,22h-5.4V14.8z"/>
		<path class="st9" d="M79.9,18.8h-4.1v1.9h4.6L80.2,22h-5.9v-7.2h5.8V16h-4.3v1.6h4.1V18.8z"/>
		<path class="st9" d="M86.8,22l-2-2.7h0L82.8,22h-1.7l2.8-3.7l-2.7-3.5H83l1.9,2.5h0l1.9-2.5h1.7l-2.7,3.5l2.9,3.7H86.8z"/>
		<path class="st9" d="M90.8,20.2L90.1,22h-1.6l3-7.2h1.9l3.1,7.2h-1.6l-0.8-1.8H90.8z M93.7,18.9c-0.7-1.8-1.1-2.6-1.3-3.2h0
			c-0.2,0.5-0.6,1.7-1.2,3.2H93.7z"/>
		<path class="st9" d="M102,14.8V22h-1.5v-7.2H102z"/>
		<path class="st9" d="M103.5,22v-2h1.6v2H103.5z"/>
		<path class="st9" d="M110.5,19.8c0.2,0.7,0.8,1.2,2,1.2c1.2,0,1.6-0.4,1.6-0.9c0-0.6-0.4-0.9-2-1.2c-2.4-0.4-2.9-1.2-2.9-2.1
			c0-1.4,1.3-2.1,3-2.1c2.4,0,3.1,1.3,3.1,2.1h-1.5c-0.1-0.4-0.4-0.9-1.7-0.9c-0.9,0-1.4,0.3-1.4,0.8c0,0.5,0.3,0.7,1.7,1
			c2.7,0.5,3.1,1.3,3.1,2.3c0,1.2-1,2.2-3.3,2.2c-2.2,0-3.2-1-3.4-2.3H110.5z"/>
		<path class="st9" d="M118.9,16h-2.6v-1.2h6.7V16h-2.6v6h-1.5V16z"/>
		<path class="st9" d="M129.8,18.8h-4.1v1.9h4.6l-0.2,1.2h-5.9v-7.2h5.8V16h-4.3v1.6h4.1V18.8z"/>
		<path class="st9" d="M131.7,14.8h5.8V16h-4.3v1.9h4v1.2h-4V22h-1.5V14.8z"/>
		<path class="st9" d="M139.6,20.2l-0.7,1.8h-1.6l3-7.2h1.9l3.1,7.2h-1.6l-0.8-1.8H139.6z M142.5,18.9c-0.7-1.8-1.1-2.6-1.3-3.2h0
			c-0.2,0.5-0.6,1.7-1.2,3.2H142.5z"/>
		<path class="st9" d="M146.4,22v-7.2h1.8c1.9,2.8,3.2,4.5,3.6,5.4h0c-0.1-0.8-0.1-2.1-0.1-3.3v-2.1h1.4V22h-1.7
			c-0.8-1.2-3.3-4.9-3.7-5.7h0c0.1,0.9,0.1,1.9,0.1,3.2V22H146.4z"/>
		<path class="st9" d="M162.5,18.3c0,2-1.3,3.8-3.9,3.8c-2.4,0-3.8-1.7-3.8-3.8c0-2,1.5-3.7,3.9-3.7
			C161.1,14.6,162.5,16.4,162.5,18.3z M156.3,18.3c0,1.4,0.8,2.6,2.3,2.6c1.6,0,2.2-1.3,2.2-2.6c0-1.3-0.7-2.6-2.3-2.6
			C157.1,15.8,156.3,17,156.3,18.3z"/>
		<path class="st9" d="M165.4,14.8v4.1c0,1.6,0.9,2.1,1.9,2.1c1.1,0,1.7-0.5,1.7-2.1v-4.1h1.5v4.1c0,2.2-1.2,3.2-3.3,3.2
			c-2,0-3.3-0.9-3.3-3.2v-4.2H165.4z"/>
		<path class="st9" d="M59.5,28h3.2c2.4,0,3.7,1.5,3.7,3.5c0,2.3-1.7,3.7-3.8,3.7h-3.1V28z M61,34h1.4c1.6,0,2.4-0.9,2.4-2.5
			c0-1.4-0.8-2.3-2.3-2.3H61V34z"/>
		<path class="st9" d="M73.6,32.1h-4.1V34H74l-0.2,1.2h-5.9V28h5.8v1.2h-4.3v1.6h4.1V32.1z"/>
		<path class="st9" d="M76.3,33.1c0.2,0.7,0.8,1.2,2,1.2c1.2,0,1.6-0.4,1.6-0.9c0-0.6-0.4-0.9-2-1.2c-2.4-0.4-2.9-1.2-2.9-2.1
			c0-1.4,1.3-2.1,3-2.1c2.4,0,3.1,1.3,3.1,2.1h-1.5c-0.1-0.4-0.4-0.9-1.7-0.9c-0.9,0-1.4,0.3-1.4,0.8c0,0.5,0.3,0.7,1.7,1
			c2.7,0.5,3.1,1.3,3.1,2.3c0,1.2-1,2.2-3.3,2.2c-2.2,0-3.2-1-3.4-2.3H76.3z"/>
		<path class="st9" d="M84.6,28v7.2h-1.5V28H84.6z"/>
		<path class="st9" d="M93.5,35.2h-1.1c0-0.2-0.1-0.6-0.1-0.8c-0.5,0.6-1.1,1-2.5,1c-2.3,0-3.6-1.6-3.6-3.7c0-2.1,1.4-3.8,3.9-3.8
			c2.3,0,3.2,1.2,3.5,2.3H92c-0.2-0.5-0.7-1.1-1.9-1.1c-1.6,0-2.3,1.1-2.3,2.5c0,1.5,0.8,2.6,2.3,2.6c1.3,0,2-0.7,2-1.7v-0.1h-1.9
			v-1.2h3.4V35.2z"/>
		<path class="st9" d="M95.3,35.2V28h1.8c1.9,2.8,3.2,4.5,3.6,5.4h0c-0.1-0.8-0.1-2.1-0.1-3.3V28h1.4v7.2h-1.7
			c-0.8-1.2-3.3-4.9-3.7-5.7h0c0.1,0.9,0.1,1.9,0.1,3.2v2.5H95.3z"/>
		<path class="st9" d="M114.5,30.6l-2.2,2.7l2.3,2h-2.1l-1.1-1c-0.6,0.7-1.3,1.1-2.4,1.1c-1.7,0-2.4-1.1-2.4-2.1
			c0-0.8,0.4-1.4,1.5-2c-0.5-0.5-0.7-0.9-0.7-1.5c0-1,0.8-1.9,2.2-1.9c1.5,0,2.1,0.9,2.1,1.8c0,0.8-0.5,1.3-1.5,1.7l1.2,1.1l1.5-1.9
			H114.5z M110.5,33.5l-1.7-1.5c-0.6,0.3-0.8,0.7-0.8,1.1c0,0.6,0.4,1.1,1.2,1.1C109.7,34.2,110,34,110.5,33.5z M108.7,29.7
			c0,0.4,0.2,0.7,0.7,1.1c0.7-0.3,0.9-0.7,0.9-1.1c0-0.4-0.2-0.8-0.8-0.8C109,28.8,108.7,29.2,108.7,29.7z"/>
		<path class="st9" d="M120.4,28v7.2h-1.5V28H120.4z"/>
		<path class="st9" d="M122.4,28h1.5v6h4.1l-0.2,1.2h-5.4V28z"/>
		<path class="st9" d="M129.1,28h1.5v6h4.1l-0.2,1.2h-5.4V28z"/>
		<path class="st9" d="M137.1,28v4.1c0,1.6,0.9,2.1,1.9,2.1c1.1,0,1.7-0.5,1.7-2.1V28h1.5v4.1c0,2.2-1.2,3.2-3.3,3.2
			c-2,0-3.3-0.9-3.3-3.2V28H137.1z"/>
		<path class="st9" d="M144.9,33.1c0.2,0.7,0.8,1.2,2,1.2c1.2,0,1.6-0.4,1.6-0.9c0-0.6-0.4-0.9-2-1.2c-2.4-0.4-2.9-1.2-2.9-2.1
			c0-1.4,1.3-2.1,3-2.1c2.4,0,3.1,1.3,3.1,2.1h-1.5c-0.1-0.4-0.4-0.9-1.7-0.9c-0.9,0-1.4,0.3-1.4,0.8c0,0.5,0.3,0.7,1.7,1
			c2.7,0.5,3.1,1.3,3.1,2.3c0,1.2-1,2.2-3.3,2.2c-2.2,0-3.2-1-3.4-2.3H144.9z"/>
		<path class="st9" d="M153.3,29.2h-2.6V28h6.7v1.2h-2.6v6h-1.5V29.2z"/>
		<path class="st9" d="M160.1,32.3v2.9h-1.5V28h3.8c1.6,0,2.6,0.8,2.6,2c0,0.9-0.5,1.5-1.3,1.7c0.4,0.1,1.1,0.4,1.1,1.7v0.3
			c0,0.5,0,1.1,0.1,1.4h-1.5c-0.1-0.3-0.1-0.8-0.1-1.5v-0.2c0-0.8-0.3-1.2-1.4-1.2H160.1z M160.1,31.2h1.9c0.9,0,1.4-0.3,1.4-1
			c0-0.6-0.4-1-1.3-1h-1.9V31.2z"/>
		<path class="st9" d="M168,33.4l-0.7,1.8h-1.6l3-7.2h1.9l3.1,7.2h-1.6l-0.8-1.8H168z M170.9,32.2c-0.7-1.8-1.1-2.6-1.3-3.2h0
			c-0.2,0.5-0.6,1.7-1.2,3.2H170.9z"/>
		<path class="st9" d="M175.6,29.2H173V28h6.7v1.2h-2.6v6h-1.5V29.2z"/>
		<path class="st9" d="M182.4,28v7.2h-1.5V28H182.4z"/>
		<path class="st9" d="M191.7,31.6c0,2-1.3,3.8-3.9,3.8c-2.4,0-3.8-1.7-3.8-3.8c0-2,1.5-3.7,3.9-3.7
			C190.3,27.9,191.7,29.6,191.7,31.6z M185.6,31.6c0,1.4,0.8,2.6,2.3,2.6c1.6,0,2.2-1.3,2.2-2.6c0-1.3-0.7-2.6-2.3-2.6
			C186.3,29.1,185.6,30.3,185.6,31.6z"/>
		<path class="st9" d="M193.2,35.2V28h1.8c1.9,2.8,3.2,4.5,3.6,5.4h0c-0.1-0.8-0.1-2.1-0.1-3.3V28h1.4v7.2h-1.7
			c-0.8-1.2-3.3-4.9-3.7-5.7h0c0.1,0.9,0.1,1.9,0.1,3.2v2.5H193.2z"/>
	</g>
</g>
</svg>
