<?xml version="1.0" encoding="utf-8"?>
<!-- Generator: Adobe Illustrator 21.1.0, SVG Export Plug-In . SVG Version: 6.00 Build 0)  -->
<!DOCTYPE svg PUBLIC "-//W3C//DTD SVG 1.1//EN" "http://www.w3.org/Graphics/SVG/1.1/DTD/svg11.dtd" [
	<!ENTITY ns_extend "http://ns.adobe.com/Extensibility/1.0/">
	<!ENTITY ns_ai "http://ns.adobe.com/AdobeIllustrator/10.0/">
	<!ENTITY ns_graphs "http://ns.adobe.com/Graphs/1.0/">
	<!ENTITY ns_vars "http://ns.adobe.com/Variables/1.0/">
	<!ENTITY ns_imrep "http://ns.adobe.com/ImageReplacement/1.0/">
	<!ENTITY ns_sfw "http://ns.adobe.com/SaveForWeb/1.0/">
	<!ENTITY ns_custom "http://ns.adobe.com/GenericCustomNamespace/1.0/">
	<!ENTITY ns_adobe_xpath "http://ns.adobe.com/XPath/1.0/">
]>
<svg version="1.1" id="Emoji_flirt" xmlns:x="&ns_extend;" xmlns:i="&ns_ai;" xmlns:graph="&ns_graphs;"
	 xmlns="http://www.w3.org/2000/svg" xmlns:xlink="http://www.w3.org/1999/xlink" x="0px" y="0px" viewBox="0 0 30 30"
	 style="enable-background:new 0 0 30 30;" xml:space="preserve">
<style type="text/css">
	.st0{fill:#EF6724;}
	.st1{fill:#FFFFFF;}
</style>
<metadata>
	<sfw  xmlns="&ns_sfw;">
		<slices></slices>
		<sliceSourceBounds  bottomLeftOrigin="true" height="30" width="30" x="-5" y="-5"></sliceSourceBounds>
	</sfw>
</metadata>
<rect class="st0" width="30" height="30"/>
<path class="st1" d="M12.5,14.8c0.8,0,1.5-0.8,1.5-1.8s-0.7-1.8-1.5-1.8S11,12,11,13S11.7,14.8,12.5,14.8z M15,5.4
	c-5.3,0-9.6,4.3-9.6,9.6s4.3,9.6,9.6,9.6c5.3,0,9.6-4.3,9.6-9.6C24.6,9.7,20.3,5.4,15,5.4z M15,22.6c-4.2,0-7.6-3.4-7.6-7.6
	c0-4.2,3.4-7.6,7.6-7.6s7.6,3.4,7.6,7.6C22.6,19.2,19.2,22.6,15,22.6z M19.3,16.3c-0.4-0.2-0.8,0-1,0.3c0,0.1-0.9,1.6-3.3,1.6
	c-2.5,0-3.3-1.5-3.3-1.6c-0.2-0.4-0.6-0.5-1-0.3c-0.4,0.2-0.5,0.6-0.3,1c0.1,0.1,1.2,2.4,4.7,2.4c3.4,0,4.6-2.3,4.7-2.4
	C19.9,17,19.7,16.5,19.3,16.3z M16.2,13.8h2.5c0.4,0,0.8-0.3,0.8-0.8s-0.3-0.8-0.8-0.8h-2.5c-0.4,0-0.8,0.3-0.8,0.8
	C15.5,13.4,15.8,13.8,16.2,13.8z"/>
</svg>
