<?xml version="1.0" encoding="utf-8"?>
<!-- Generator: Adobe Illustrator 21.1.0, SVG Export Plug-In . SVG Version: 6.00 Build 0)  -->
<!DOCTYPE svg PUBLIC "-//W3C//DTD SVG 1.1//EN" "http://www.w3.org/Graphics/SVG/1.1/DTD/svg11.dtd" [
	<!ENTITY ns_extend "http://ns.adobe.com/Extensibility/1.0/">
	<!ENTITY ns_ai "http://ns.adobe.com/AdobeIllustrator/10.0/">
	<!ENTITY ns_graphs "http://ns.adobe.com/Graphs/1.0/">
	<!ENTITY ns_vars "http://ns.adobe.com/Variables/1.0/">
	<!ENTITY ns_imrep "http://ns.adobe.com/ImageReplacement/1.0/">
	<!ENTITY ns_sfw "http://ns.adobe.com/SaveForWeb/1.0/">
	<!ENTITY ns_custom "http://ns.adobe.com/GenericCustomNamespace/1.0/">
	<!ENTITY ns_adobe_xpath "http://ns.adobe.com/XPath/1.0/">
]>
<svg version="1.1" id="Github" xmlns:x="&ns_extend;" xmlns:i="&ns_ai;" xmlns:graph="&ns_graphs;"
	 xmlns="http://www.w3.org/2000/svg" xmlns:xlink="http://www.w3.org/1999/xlink" x="0px" y="0px" viewBox="0 0 20 20"
	 style="enable-background:new 0 0 20 20;" xml:space="preserve">
<style type="text/css">
	.st0{fill:#EF6724;}
</style>
<metadata>
	<sfw  xmlns="&ns_sfw;">
		<slices></slices>
		<sliceSourceBounds  bottomLeftOrigin="true" height="15.6" width="18.4" x="0.8" y="2.2"></sliceSourceBounds>
	</sfw>
</metadata>
<path class="st0" d="M13.2,11.3c-0.7,0-1.3,0.8-1.3,1.8c0,1,0.6,1.8,1.3,1.8s1.3-0.8,1.3-1.8C14.5,12.1,13.9,11.3,13.2,11.3z
	 M17.7,6.6c0.1-0.4,0.2-2.4-0.6-4.4c0,0-1.8,0.2-4.6,2.1C11.9,4.1,11,4,10,4C9,4,8.1,4.1,7.5,4.3C4.7,2.4,2.9,2.2,2.9,2.2
	c-0.8,2-0.8,4.1-0.6,4.4c-0.9,1-1.5,2.2-1.5,3.9c0,7.2,6,7.3,7.5,7.3c0.3,0,1,0,1.7,0c0.7,0,1.4,0,1.7,0c1.5,0,7.5-0.1,7.5-7.3
	C19.2,8.8,18.6,7.6,17.7,6.6z M10,16.9L10,16.9c-3.8,0-6.8-0.4-6.8-4.1c0-0.9,0.3-1.7,1-2.4C5.5,9.3,7.6,9.9,10,9.9c0,0,0,0,0,0
	c0,0,0,0,0,0c2.4,0,4.4-0.6,5.7,0.5c0.7,0.7,1,1.5,1,2.4C16.7,16.5,13.8,16.9,10,16.9z M6.8,11.3c-0.7,0-1.3,0.8-1.3,1.8
	c0,1,0.6,1.8,1.3,1.8c0.7,0,1.3-0.8,1.3-1.8C8.1,12.1,7.5,11.3,6.8,11.3z"/>
</svg>
