<?xml version="1.0" encoding="utf-8"?>
<!-- Generator: Adobe Illustrator 21.1.0, SVG Export Plug-In . SVG Version: 6.00 Build 0)  -->
<!DOCTYPE svg PUBLIC "-//W3C//DTD SVG 1.1//EN" "http://www.w3.org/Graphics/SVG/1.1/DTD/svg11.dtd" [
	<!ENTITY ns_extend "http://ns.adobe.com/Extensibility/1.0/">
	<!ENTITY ns_ai "http://ns.adobe.com/AdobeIllustrator/10.0/">
	<!ENTITY ns_graphs "http://ns.adobe.com/Graphs/1.0/">
	<!ENTITY ns_vars "http://ns.adobe.com/Variables/1.0/">
	<!ENTITY ns_imrep "http://ns.adobe.com/ImageReplacement/1.0/">
	<!ENTITY ns_sfw "http://ns.adobe.com/SaveForWeb/1.0/">
	<!ENTITY ns_custom "http://ns.adobe.com/GenericCustomNamespace/1.0/">
	<!ENTITY ns_adobe_xpath "http://ns.adobe.com/XPath/1.0/">
]>
<svg version="1.1" id="Mail_w_x2F__circle" xmlns:x="&ns_extend;" xmlns:i="&ns_ai;" xmlns:graph="&ns_graphs;"
	 xmlns="http://www.w3.org/2000/svg" xmlns:xlink="http://www.w3.org/1999/xlink" x="0px" y="0px" viewBox="0 0 20 20"
	 style="enable-background:new 0 0 20 20;" xml:space="preserve">
<style type="text/css">
	.st0{fill:#EF6724;}
</style>
<metadata>
	<sfw  xmlns="&ns_sfw;">
		<slices></slices>
		<sliceSourceBounds  bottomLeftOrigin="true" height="19.2" width="19.2" x="0.4" y="0.4"></sliceSourceBounds>
	</sfw>
</metadata>
<path class="st0" d="M10,0.4c-5.3,0-9.6,4.3-9.6,9.6s4.3,9.6,9.6,9.6s9.6-4.3,9.6-9.6S15.3,0.4,10,0.4z M6.2,7h7.5
	c0.4,0,0.2,0.5,0,0.6c-0.2,0.1-3.2,1.9-3.3,2S10.1,9.8,10,9.8c-0.1,0-0.3,0-0.4-0.1c-0.1-0.1-3.1-1.9-3.3-2C6,7.5,5.8,7,6.2,7z
	 M14,12.5c0,0.2-0.3,0.5-0.4,0.5H6.4C6.3,13,6,12.7,6,12.5c0,0,0-3.6,0-3.6c0-0.1,0-0.2,0.2-0.1c0.2,0.1,3.3,1.9,3.4,2
	c0.2,0.1,0.3,0.1,0.4,0.1c0.1,0,0.3,0,0.4-0.1s3.2-1.9,3.4-2C14,8.6,14,8.8,14,8.9C14,8.9,14,12.5,14,12.5z"/>
</svg>
