<?xml version="1.0" encoding="utf-8"?>
<!-- Generator: Adobe Illustrator 22.0.1, SVG Export Plug-In . SVG Version: 6.00 Build 0)  -->
<!DOCTYPE svg PUBLIC "-//W3C//DTD SVG 1.1//EN" "http://www.w3.org/Graphics/SVG/1.1/DTD/svg11.dtd" [
	<!ENTITY ns_extend "http://ns.adobe.com/Extensibility/1.0/">
	<!ENTITY ns_ai "http://ns.adobe.com/AdobeIllustrator/10.0/">
	<!ENTITY ns_graphs "http://ns.adobe.com/Graphs/1.0/">
	<!ENTITY ns_vars "http://ns.adobe.com/Variables/1.0/">
	<!ENTITY ns_imrep "http://ns.adobe.com/ImageReplacement/1.0/">
	<!ENTITY ns_sfw "http://ns.adobe.com/SaveForWeb/1.0/">
	<!ENTITY ns_custom "http://ns.adobe.com/GenericCustomNamespace/1.0/">
	<!ENTITY ns_adobe_xpath "http://ns.adobe.com/XPath/1.0/">
]>
<svg version="1.1" id="Layer_1" xmlns:x="&ns_extend;" xmlns:i="&ns_ai;" xmlns:graph="&ns_graphs;"
	 xmlns="http://www.w3.org/2000/svg" xmlns:xlink="http://www.w3.org/1999/xlink" x="0px" y="0px" viewBox="0 0 140 88.7"
	 style="enable-background:new 0 0 140 88.7;" xml:space="preserve">
<style type="text/css">
	.st0{fill:#EF6724;}
	.st1{opacity:0.75;}
	.st2{fill:#989898;}
	.st3{opacity:0.4;fill:#989898;}
	.st4{fill:#A5A5A5;}
	.st5{fill:#666666;}
	.st6{fill:#B3B3B3;}
	.st7{fill:#E6E6E6;}
	.st8{fill:#F2F2F2;}
	.st9{fill:#808080;}
	.st10{fill:#999999;}
	.st11{fill:#AA491D;}
	.st12{opacity:0.85;fill:#F2F2F2;}
	.st13{opacity:0.71;fill:url(#);}
	.st14{fill:none;stroke:#F2F2F2;stroke-width:16;stroke-miterlimit:10;}
	.st15{clip-path:url(#SVGID_2_);fill:#AA491D;}
	.st16{opacity:0.5;clip-path:url(#SVGID_2_);}
	.st17{opacity:0.5;}
	.st18{clip-path:url(#SVGID_4_);}
	.st19{opacity:0.71;}
	.st20{clip-path:url(#SVGID_6_);}
	.st21{fill:none;stroke:#F2F2F2;stroke-width:23.8168;stroke-miterlimit:10;}
	.st22{opacity:0.5;fill:none;stroke:#F2F2F2;stroke-width:5;stroke-miterlimit:10;}
	.st23{fill:url(#);}
</style>
<metadata>
	<sfw  xmlns="&ns_sfw;">
		<slices></slices>
		<sliceSourceBounds  bottomLeftOrigin="true" height="4278.2" width="8445.7" x="528.4" y="-4015.2"></sliceSourceBounds>
	</sfw>
</metadata>
<g>
	<g>
		<path class="st9" d="M17.4,67.5l-0.7,1.8h-1.5l2.9-7.1H20l3,7.1h-1.6l-0.7-1.8H17.4z M20.2,66.3c-0.7-1.7-1.1-2.6-1.2-3.1h0
			c-0.1,0.5-0.6,1.6-1.1,3.1H20.2z"/>
		<path class="st9" d="M24,62.2h1.5v5.9h4.1l-0.2,1.2H24V62.2z"/>
		<path class="st9" d="M36,66.2h-4v1.9h4.5l-0.2,1.2h-5.8v-7.1h5.7v1.2H32V65h4V66.2z"/>
		<path class="st9" d="M42.7,69.3l-2-2.6h0l-1.9,2.6h-1.7l2.7-3.6l-2.6-3.4H39l1.8,2.4h0l1.8-2.4h1.6l-2.7,3.4l2.8,3.7H42.7z"/>
		<path class="st9" d="M46.6,67.5l-0.7,1.8h-1.5l2.9-7.1h1.9l3,7.1h-1.6l-0.7-1.8H46.6z M49.4,66.3c-0.7-1.7-1.1-2.6-1.2-3.1h0
			c-0.1,0.5-0.6,1.6-1.1,3.1H49.4z"/>
		<path class="st9" d="M57.5,62.2v7.1h-1.5v-7.1H57.5z"/>
		<path class="st9" d="M59,69.3v-1.9h1.6v1.9H59z"/>
		<path class="st9" d="M65.8,67.2c0.2,0.7,0.8,1.1,2,1.1c1.2,0,1.6-0.4,1.6-0.9c0-0.5-0.4-0.9-1.9-1.1c-2.3-0.4-2.8-1.1-2.8-2.1
			c0-1.4,1.3-2.1,2.9-2.1c2.4,0,3,1.2,3.1,2h-1.5c-0.1-0.4-0.4-0.9-1.6-0.9c-0.9,0-1.4,0.3-1.4,0.8c0,0.5,0.3,0.7,1.7,1
			c2.6,0.5,3.1,1.3,3.1,2.3c0,1.2-0.9,2.2-3.2,2.2c-2.1,0-3.1-1-3.3-2.2H65.8z"/>
		<path class="st9" d="M74,63.4h-2.6v-1.2H78v1.2h-2.5v5.9H74V63.4z"/>
		<path class="st9" d="M84.6,66.2h-4v1.9h4.5l-0.2,1.2h-5.8v-7.1h5.7v1.2h-4.2V65h4V66.2z"/>
		<path class="st9" d="M86.4,62.2h5.7v1.2h-4.2v1.8h3.9v1.2h-3.9v2.8h-1.5V62.2z"/>
		<path class="st9" d="M94.2,67.5l-0.7,1.8H92l2.9-7.1h1.9l3,7.1h-1.6l-0.7-1.8H94.2z M97,66.3c-0.7-1.7-1.1-2.6-1.2-3.1h0
			c-0.1,0.5-0.6,1.6-1.1,3.1H97z"/>
		<path class="st9" d="M100.8,69.3v-7.1h1.7c1.9,2.8,3.1,4.4,3.6,5.2h0c-0.1-0.8-0.1-2.1-0.1-3.2v-2h1.4v7.1h-1.6
			c-0.8-1.2-3.2-4.8-3.7-5.6h0c0.1,0.9,0.1,1.9,0.1,3.1v2.4H100.8z"/>
		<path class="st9" d="M116.5,65.7c0,2-1.3,3.7-3.8,3.7c-2.3,0-3.7-1.6-3.7-3.7c0-1.9,1.4-3.7,3.8-3.7
			C115.2,62.1,116.5,63.8,116.5,65.7z M110.5,65.7c0,1.4,0.8,2.5,2.3,2.5c1.5,0,2.2-1.2,2.2-2.5c0-1.3-0.7-2.5-2.2-2.5
			C111.2,63.2,110.5,64.4,110.5,65.7z"/>
		<path class="st9" d="M119.4,62.2v4c0,1.6,0.9,2,1.8,2c1,0,1.7-0.5,1.7-2v-4h1.5v4c0,2.2-1.2,3.2-3.2,3.2c-2,0-3.2-0.9-3.2-3.1
			v-4.1H119.4z"/>
		<path class="st9" d="M1.7,75.2h3.1c2.3,0,3.7,1.5,3.7,3.4c0,2.3-1.6,3.6-3.7,3.6H1.7V75.2z M3.2,81.1h1.4c1.5,0,2.3-0.9,2.3-2.4
			c0-1.4-0.8-2.3-2.3-2.3H3.2V81.1z"/>
		<path class="st9" d="M15.4,79.2h-4v1.9h4.5l-0.2,1.2H9.9v-7.1h5.7v1.2h-4.2V78h4V79.2z"/>
		<path class="st9" d="M18.1,80.2c0.2,0.7,0.8,1.1,2,1.1c1.2,0,1.6-0.4,1.6-0.9c0-0.5-0.4-0.9-1.9-1.1c-2.3-0.4-2.8-1.1-2.8-2.1
			c0-1.4,1.3-2.1,2.9-2.1c2.4,0,3,1.2,3.1,2h-1.5c-0.1-0.4-0.4-0.9-1.6-0.9c-0.9,0-1.4,0.3-1.4,0.8c0,0.5,0.3,0.7,1.7,1
			c2.6,0.5,3.1,1.3,3.1,2.3c0,1.2-0.9,2.2-3.2,2.2c-2.1,0-3.1-1-3.3-2.2H18.1z"/>
		<path class="st9" d="M26.2,75.2v7.1h-1.5v-7.1H26.2z"/>
		<path class="st9" d="M34.9,82.3h-1.1c0-0.2-0.1-0.5-0.1-0.8c-0.5,0.6-1.1,1-2.4,1c-2.3,0-3.6-1.5-3.6-3.6c0-2.1,1.4-3.7,3.8-3.7
			c2.2,0,3.2,1.2,3.4,2.2h-1.5c-0.2-0.5-0.7-1.1-1.9-1.1c-1.5,0-2.3,1.1-2.3,2.5c0,1.5,0.7,2.6,2.3,2.6c1.3,0,1.9-0.7,1.9-1.7v-0.1
			h-1.9v-1.2h3.3V82.3z"/>
		<path class="st9" d="M36.6,82.3v-7.1h1.7c1.9,2.8,3.1,4.4,3.6,5.2h0c-0.1-0.8-0.1-2.1-0.1-3.2v-2h1.4v7.1h-1.6
			c-0.8-1.2-3.2-4.8-3.7-5.6h0c0.1,0.9,0.1,1.9,0.1,3.1v2.4H36.6z"/>
		<path class="st9" d="M55.3,77.7l-2.2,2.6l2.3,2h-2l-1.1-0.9c-0.6,0.6-1.2,1.1-2.3,1.1c-1.7,0-2.4-1.1-2.4-2c0-0.8,0.4-1.3,1.5-1.9
			c-0.5-0.5-0.7-0.9-0.7-1.5c0-0.9,0.8-1.8,2.1-1.8c1.5,0,2.1,0.9,2.1,1.7c0,0.8-0.5,1.2-1.5,1.7l1.2,1l1.4-1.8H55.3z M51.4,80.6
			l-1.7-1.5c-0.6,0.3-0.8,0.7-0.8,1.1c0,0.6,0.4,1,1.1,1C50.6,81.3,50.9,81.1,51.4,80.6z M49.6,76.8c0,0.3,0.2,0.7,0.7,1
			c0.7-0.3,0.9-0.7,0.9-1c0-0.4-0.2-0.8-0.8-0.8C49.9,76,49.6,76.4,49.6,76.8z"/>
		<path class="st9" d="M61.1,75.2v7.1h-1.5v-7.1H61.1z"/>
		<path class="st9" d="M63,75.2h1.5v5.9h4.1l-0.2,1.2H63V75.2z"/>
		<path class="st9" d="M69.5,75.2H71v5.9H75l-0.2,1.2h-5.3V75.2z"/>
		<path class="st9" d="M77.4,75.2v4c0,1.6,0.9,2,1.8,2c1,0,1.7-0.5,1.7-2v-4h1.5v4c0,2.2-1.2,3.2-3.2,3.2c-2,0-3.2-0.9-3.2-3.1v-4.1
			H77.4z"/>
		<path class="st9" d="M84.9,80.2c0.2,0.7,0.8,1.1,2,1.1c1.2,0,1.6-0.4,1.6-0.9c0-0.5-0.4-0.9-1.9-1.1c-2.3-0.4-2.8-1.1-2.8-2.1
			c0-1.4,1.3-2.1,2.9-2.1c2.4,0,3,1.2,3.1,2h-1.5c-0.1-0.4-0.4-0.9-1.6-0.9c-0.9,0-1.4,0.3-1.4,0.8c0,0.5,0.3,0.7,1.7,1
			c2.6,0.5,3.1,1.3,3.1,2.3c0,1.2-0.9,2.2-3.2,2.2c-2.1,0-3.1-1-3.3-2.2H84.9z"/>
		<path class="st9" d="M93.1,76.4h-2.6v-1.2h6.6v1.2h-2.5v5.9h-1.5V76.4z"/>
		<path class="st9" d="M99.7,79.4v2.8h-1.5v-7.1h3.7c1.6,0,2.5,0.7,2.5,2c0,0.9-0.5,1.4-1.2,1.7c0.3,0.1,1.1,0.4,1.1,1.7v0.3
			c0,0.5,0,1.1,0.1,1.4h-1.5c-0.1-0.3-0.1-0.8-0.1-1.5v-0.2c0-0.8-0.3-1.1-1.4-1.1H99.7z M99.7,78.3h1.9c0.9,0,1.3-0.3,1.3-1
			c0-0.6-0.4-1-1.3-1h-1.9V78.3z"/>
		<path class="st9" d="M107.5,80.5l-0.7,1.8h-1.5l2.9-7.1h1.9l3,7.1h-1.6l-0.7-1.8H107.5z M110.3,79.3c-0.7-1.7-1.1-2.6-1.2-3.1h0
			c-0.2,0.5-0.6,1.6-1.1,3.1H110.3z"/>
		<path class="st9" d="M114.9,76.4h-2.6v-1.2h6.6v1.2h-2.5v5.9h-1.5V76.4z"/>
		<path class="st9" d="M121.6,75.2v7.1h-1.5v-7.1H121.6z"/>
		<path class="st9" d="M130.6,78.7c0,2-1.3,3.7-3.8,3.7c-2.3,0-3.7-1.6-3.7-3.7c0-1.9,1.4-3.7,3.8-3.7
			C129.3,75.1,130.6,76.8,130.6,78.7z M124.6,78.7c0,1.4,0.8,2.5,2.3,2.5c1.5,0,2.2-1.2,2.2-2.5c0-1.3-0.7-2.5-2.2-2.5
			C125.4,76.2,124.6,77.4,124.6,78.7z"/>
		<path class="st9" d="M132.1,82.3v-7.1h1.7c1.9,2.8,3.1,4.4,3.6,5.2h0c-0.1-0.8-0.1-2.1-0.1-3.2v-2h1.4v7.1h-1.6
			c-0.8-1.2-3.2-4.8-3.7-5.6h0c0.1,0.9,0.1,1.9,0.1,3.1v2.4H132.1z"/>
	</g>
	<circle class="st0" cx="70" cy="26.5" r="23.5"/>
</g>
</svg>
